<svg width="16" height="16" viewBox="0 0 16 16" fill="none" xmlns="http://www.w3.org/2000/svg">
<path d="M14.2104 1.5H10.0004V2.75H13.0804L7.90039 7.21L8.72039 8.21L14.2504 3.44V7H15.5004V2.79C15.5004 2.44787 15.3645 2.11975 15.1226 1.87783C14.8806 1.63591 14.5525 1.5 14.2104 1.5Z" fill="white"/>
<path d="M12.25 13.25H1.75V4.75H7.5V3.5H1.5C1.23478 3.5 0.98043 3.60536 0.792893 3.79289C0.605357 3.98043 0.5 4.23478 0.5 4.5V13.5C0.5 13.7652 0.605357 14.0196 0.792893 14.2071C0.98043 14.3946 1.23478 14.5 1.5 14.5H12.5C12.7652 14.5 13.0196 14.3946 13.2071 14.2071C13.3946 14.0196 13.5 13.7652 13.5 13.5V9.5H12.25V13.25Z" fill="white"/>
</svg>
